<svg width="400" height="400" viewBox="0 0 400 400" xmlns="http://www.w3.org/2000/svg" xmlns:sketch="http://www.bohemiancoding.com/sketch/ns"><title>stars</title><desc>Created with Sketch.</desc><g sketch:type="MSArtboardGroup" fill="#666"><ellipse id="Oval-1" sketch:type="MSShapeGroup" cx="34.092" cy="23.64" rx="2.809" ry="2.806"/><ellipse id="Oval-1" sketch:type="MSShapeGroup" cx="73.813" cy="35.263" rx="2.407" ry="2.405"/><ellipse id="Oval-1" sketch:type="MSShapeGroup" cx="68.196" cy="100.194" rx="2.407" ry="2.405"/><ellipse id="Oval-1" sketch:type="MSShapeGroup" cx="39.709" cy="106.206" rx="2.809" ry="2.806"/><ellipse id="Oval-1" sketch:type="MSShapeGroup" cx="66.189" cy="116.628" rx="2.809" ry="2.806"/><ellipse id="Oval-1" sketch:type="MSShapeGroup" cx="59.77" cy="164.725" rx="2.006" ry="2.004"/><ellipse id="Oval-1" sketch:type="MSShapeGroup" cx="95.077" cy="147.891" rx="1.204" ry="1.202"/><ellipse id="Oval-1" sketch:type="MSShapeGroup" cx="106.312" cy="100.595" rx="2.809" ry="2.806"/><ellipse id="Oval-1" sketch:type="MSShapeGroup" cx="131.187" cy="44.482" rx="2.809" ry="2.806"/><ellipse id="Oval-1" sketch:type="MSShapeGroup" cx="105.509" cy="56.506" rx="2.006" ry="2.004"/><ellipse id="Oval-1" sketch:type="MSShapeGroup" cx="106.312" cy="14.02" rx="2.809" ry="2.806"/><ellipse id="Oval-1" sketch:type="MSShapeGroup" cx="136.804" cy="17.227" rx="2.809" ry="2.806"/><ellipse id="Oval-1" sketch:type="MSShapeGroup" cx="168.1" cy="52.498" rx="3.611" ry="3.607"/><ellipse id="Oval-1" sketch:type="MSShapeGroup" cx="167.297" cy="100.595" rx="2.809" ry="2.806"/><ellipse id="Oval-1" sketch:type="MSShapeGroup" cx="161.279" cy="104.202" rx="3.21" ry="3.206"/><ellipse id="Oval-1" sketch:type="MSShapeGroup" cx="151.248" cy="129.453" rx="2.809" ry="2.806"/><ellipse id="Oval-1" sketch:type="MSShapeGroup" cx="172.914" cy="135.065" rx="2.809" ry="2.806"/><ellipse id="Oval-1" sketch:type="MSShapeGroup" cx="154.458" cy="159.915" rx="2.809" ry="2.806"/><ellipse id="Oval-1" sketch:type="MSShapeGroup" cx="178.532" cy="171.138" rx="2.809" ry="2.806"/><ellipse id="Oval-1" sketch:type="MSShapeGroup" cx="193.778" cy="192.781" rx="2.809" ry="2.806"/><ellipse id="Oval-1" sketch:type="MSShapeGroup" cx="203.407" cy="146.287" rx="2.809" ry="2.806"/><ellipse id="Oval-1" sketch:type="MSShapeGroup" cx="131.187" cy="187.17" rx="2.809" ry="2.806"/><ellipse id="Oval-1" sketch:type="MSShapeGroup" cx="100.695" cy="157.51" rx="2.809" ry="2.806"/><ellipse id="Oval-1" sketch:type="MSShapeGroup" cx="68.597" cy="189.575" rx="2.809" ry="2.806"/><ellipse id="Oval-1" sketch:type="MSShapeGroup" cx="28.475" cy="189.575" rx="2.809" ry="2.806"/><ellipse id="Oval-1" sketch:type="MSShapeGroup" cx="12.426" cy="198.393" rx="2.809" ry="2.806"/><ellipse id="Oval-1" sketch:type="MSShapeGroup" cx="6.809" cy="171.138" rx="2.809" ry="2.806"/><ellipse id="Oval-1" sketch:type="MSShapeGroup" cx="24.061" cy="136.267" rx="4.012" ry="4.008"/><ellipse id="Oval-1" sketch:type="MSShapeGroup" cx="17.24" cy="122.239" rx="2.809" ry="2.806"/><ellipse id="Oval-1" sketch:type="MSShapeGroup" cx="26.067" cy="122.239" rx="2.809" ry="2.806"/><ellipse id="Oval-1" sketch:type="MSShapeGroup" cx="15.635" cy="87.769" rx="2.809" ry="2.806"/><ellipse id="Oval-1" sketch:type="MSShapeGroup" cx="32.487" cy="70.935" rx="3.611" ry="3.607"/><ellipse id="Oval-1" sketch:type="MSShapeGroup" cx="6.809" cy="20.433" rx="2.809" ry="2.806"/><ellipse id="Oval-1" sketch:type="MSShapeGroup" cx="20.45" cy="12.417" rx="2.006" ry="2.004"/><ellipse id="Oval-1" sketch:type="MSShapeGroup" cx="145.631" cy="71.737" rx="2.809" ry="2.806"/><ellipse sketch:type="MSShapeGroup" cx="181.741" cy="14.822" rx="2.809" ry="2.806"/><ellipse sketch:type="MSShapeGroup" cx="191.371" cy="42.077" rx="2.809" ry="2.806"/><path d="M377.649 231.293c0 1.572 1.276 2.846 2.849 2.846 1.574 0 2.849-1.274 2.849-2.846s-1.276-2.846-2.849-2.846c-1.574 0-2.849 1.274-2.849 2.846zm-11.397 40.254c0 1.347 1.093 2.44 2.442 2.44 1.349 0 2.442-1.092 2.442-2.44 0-1.347-1.093-2.44-2.442-2.44-1.349 0-2.442 1.092-2.442 2.44zm-65.938-5.692c0 1.347 1.093 2.44 2.442 2.44 1.349 0 2.442-1.092 2.442-2.44 0-1.347-1.093-2.44-2.442-2.44-1.349 0-2.442 1.092-2.442 2.44zm-6.512-28.869c0 1.572 1.276 2.846 2.849 2.846 1.574 0 2.849-1.274 2.849-2.846s-1.276-2.846-2.849-2.846c-1.574 0-2.849 1.274-2.849 2.846zm-10.583 26.836c0 1.572 1.276 2.846 2.849 2.846 1.574 0 2.849-1.274 2.849-2.846s-1.276-2.846-2.849-2.846c-1.574 0-2.849 1.274-2.849 2.846zm-48.029-6.506c0 1.123.911 2.033 2.035 2.033s2.035-.91 2.035-2.033c0-1.123-.911-2.033-2.035-2.033s-2.035.91-2.035 2.033zm17.909 35.781c0 .674.547 1.22 1.221 1.22s1.221-.546 1.221-1.22c0-.674-.547-1.22-1.221-1.22s-1.221.546-1.221 1.22zm46.401 11.385c0 1.572 1.276 2.846 2.849 2.846 1.574 0 2.849-1.274 2.849-2.846s-1.276-2.846-2.849-2.846c-1.574 0-2.849 1.274-2.849 2.846zm56.983 25.21c0 1.572 1.276 2.846 2.849 2.846 1.574 0 2.849-1.274 2.849-2.846s-1.276-2.846-2.849-2.846c-1.574 0-2.849 1.274-2.849 2.846zm-11.396-26.023c0 1.123.911 2.033 2.035 2.033s2.035-.91 2.035-2.033c0-1.123-.911-2.033-2.035-2.033s-2.035.91-2.035 2.033zm42.33.813c0 1.572 1.276 2.846 2.849 2.846 1.574 0 2.849-1.274 2.849-2.846s-1.276-2.846-2.849-2.846c-1.574 0-2.849 1.274-2.849 2.846zm-3.256 30.902c0 1.572 1.276 2.846 2.849 2.846 1.574 0 2.849-1.274 2.849-2.846s-1.276-2.846-2.849-2.846c-1.574 0-2.849 1.274-2.849 2.846zm-36.632 31.716c0 2.021 1.64 3.659 3.663 3.659 2.023 0 3.663-1.638 3.663-3.659s-1.64-3.659-3.663-3.659c-2.023 0-3.663 1.638-3.663 3.659zm-48.029-.814c0 1.572 1.276 2.846 2.849 2.846 1.574 0 2.849-1.274 2.849-2.846s-1.276-2.846-2.849-2.846c-1.574 0-2.849 1.274-2.849 2.846zm-4.07-6.099c0 1.797 1.458 3.253 3.256 3.253 1.798 0 3.256-1.456 3.256-3.253 0-1.797-1.458-3.253-3.256-3.253-1.798 0-3.256 1.456-3.256 3.253zm-25.236-10.165c0 1.572 1.276 2.846 2.849 2.846 1.574 0 2.849-1.274 2.849-2.846s-1.276-2.846-2.849-2.846c-1.574 0-2.849 1.274-2.849 2.846zm-5.698 21.957c0 1.572 1.276 2.846 2.849 2.846 1.574 0 2.849-1.274 2.849-2.846s-1.276-2.846-2.849-2.846c-1.574 0-2.849 1.274-2.849 2.846zm-25.236-18.704c0 1.572 1.276 2.846 2.849 2.846 1.574 0 2.849-1.274 2.849-2.846s-1.276-2.846-2.849-2.846c-1.574 0-2.849 1.274-2.849 2.846zm-11.396 24.396c0 1.572 1.276 2.846 2.849 2.846 1.574 0 2.849-1.274 2.849-2.846s-1.276-2.846-2.849-2.846c-1.574 0-2.849 1.274-2.849 2.846zm-21.98 15.451c0 1.572 1.276 2.846 2.849 2.846 1.574 0 2.849-1.274 2.849-2.846s-1.276-2.846-2.849-2.846c-1.574 0-2.849 1.274-2.849 2.846zm5.699-63.43c0 1.572 1.276 2.846 2.849 2.846 1.574 0 2.849-1.274 2.849-2.846s-1.276-2.846-2.849-2.846c-1.574 0-2.849 1.274-2.849 2.846zm30.119-30.902c0 1.572 1.276 2.846 2.849 2.846 1.574 0 2.849-1.274 2.849-2.846s-1.276-2.846-2.849-2.846c-1.574 0-2.849 1.274-2.849 2.846zm-32.562-32.529c0 1.572 1.276 2.846 2.849 2.846 1.574 0 2.849-1.274 2.849-2.846s-1.276-2.846-2.849-2.846c-1.574 0-2.849 1.274-2.849 2.846zm0-40.66c0 1.572 1.276 2.846 2.849 2.846 1.574 0 2.849-1.274 2.849-2.846s-1.276-2.846-2.849-2.846c-1.574 0-2.849 1.274-2.849 2.846zm-8.954-16.265c0 1.572 1.276 2.846 2.849 2.846 1.574 0 2.849-1.274 2.849-2.846s-1.276-2.846-2.849-2.846c-1.574 0-2.849 1.274-2.849 2.846zm27.678-5.692c0 1.572 1.276 2.846 2.849 2.846 1.574 0 2.849-1.274 2.849-2.846s-1.276-2.846-2.849-2.846c-1.574 0-2.849 1.274-2.849 2.846zm34.19 17.484c0 2.246 1.822 4.066 4.07 4.066s4.07-1.82 4.07-4.066c0-2.246-1.822-4.066-4.07-4.066s-4.07 1.82-4.07 4.066zm22.793-19.924c0 1.572 1.276 2.846 2.849 2.846 1.574 0 2.849-1.274 2.849-2.846s-1.276-2.846-2.849-2.846c-1.574 0-2.849 1.274-2.849 2.846zm-7.326 21.957c0 1.572 1.276 2.846 2.849 2.846 1.574 0 2.849-1.274 2.849-2.846s-1.276-2.846-2.849-2.846c-1.574 0-2.849 1.274-2.849 2.846zm35.004-10.572c0 1.572 1.276 2.846 2.849 2.846 1.574 0 2.849-1.274 2.849-2.846s-1.276-2.846-2.849-2.846c-1.574 0-2.849 1.274-2.849 2.846zm16.281 17.078c0 2.021 1.64 3.659 3.663 3.659 2.023 0 3.663-1.638 3.663-3.659s-1.64-3.659-3.663-3.659c-2.023 0-3.663 1.638-3.663 3.659zm52.099-26.023c0 1.572 1.276 2.846 2.849 2.846 1.574 0 2.849-1.274 2.849-2.846s-1.276-2.846-2.849-2.846c-1.574 0-2.849 1.274-2.849 2.846zm8.955 13.824c0 1.123.911 2.033 2.035 2.033s2.035-.91 2.035-2.033c0-1.123-.911-2.033-2.035-2.033s-2.035.91-2.035 2.033zm-61.054 126.862c0 1.572 1.276 2.846 2.849 2.846 1.574 0 2.849-1.274 2.849-2.846s-1.276-2.846-2.849-2.846c-1.574 0-2.849 1.274-2.849 2.846zm57.797 36.594c0 1.572 1.276 2.846 2.849 2.846 1.574 0 2.849-1.274 2.849-2.846s-1.276-2.846-2.849-2.846c-1.574 0-2.849 1.274-2.849 2.846zm-27.677 9.759c0 1.572 1.276 2.846 2.849 2.846 1.574 0 2.849-1.274 2.849-2.846s-1.276-2.846-2.849-2.846c-1.574 0-2.849 1.274-2.849 2.846zm-14.6-362.053c.665 1.15 2.137 1.544 3.288.88 1.151-.664 1.546-2.135.881-3.285-.665-1.15-2.137-1.544-3.288-.88-1.151.664-1.546 2.135-.881 3.285zm-59.098 27.606c.665 1.15 2.137 1.544 3.288.88 1.151-.664 1.546-2.135.881-3.285-.665-1.15-2.137-1.544-3.288-.88-1.151.664-1.546 2.135-.881 3.285zm-19.803-21.439c.776 1.342 2.493 1.802 3.837 1.027 1.343-.775 1.804-2.491 1.028-3.833s-2.493-1.802-3.837-1.027c-1.343.775-1.804 2.491-1.028 3.833zm4.206 28.12c.776 1.342 2.493 1.802 3.837 1.027 1.343-.775 1.804-2.491 1.028-3.833s-2.493-1.802-3.837-1.027c-1.343.775-1.804 2.491-1.028 3.833zm-44.211 18.094c.554.959 1.781 1.287 2.74.734.96-.553 1.288-1.779.734-2.738-.554-.959-1.781-1.287-2.74-.734-.96.553-1.288 1.779-.734 2.738zm32.942 21.728c.332.575 1.069.772 1.644.44.576-.332.773-1.067.441-1.643-.332-.575-1.069-.772-1.644-.44-.576.332-.773 1.067-.441 1.643zm45.229-13.127c.776 1.342 2.493 1.802 3.837 1.027 1.343-.775 1.804-2.491 1.028-3.833s-2.493-1.802-3.837-1.027c-1.343.775-1.804 2.491-1.028 3.833zm61.083-6.536c.776 1.342 2.493 1.802 3.837 1.027 1.343-.775 1.804-2.491 1.028-3.833s-2.493-1.802-3.837-1.027c-1.343.775-1.804 2.491-1.028 3.833zm-22.568-16.603c.554.959 1.781 1.287 2.74.734.96-.553 1.288-1.779.734-2.738-.554-.959-1.781-1.287-2.74-.734-.96.553-1.288 1.779-.734 2.738zm36.538-20.148c.776 1.342 2.493 1.802 3.837 1.027 1.343-.775 1.804-2.491 1.028-3.833s-2.493-1.802-3.837-1.027c-1.343.775-1.804 2.491-1.028 3.833zm14.05 27.983c.779 1.342 2.503 1.802 3.852 1.027 1.349-.775 1.811-2.491 1.032-3.833-.779-1.342-2.503-1.802-3.852-1.027-1.349.775-1.811 2.491-1.032 3.833zm-15.688 45.112c1.001 1.725 3.219 2.316 4.953 1.32 1.734-.996 2.328-3.202 1.327-4.928-1.001-1.725-3.219-2.316-4.953-1.32-1.734.996-2.328 3.202-1.327 4.928zm-41.572 22.953c.779 1.342 2.503 1.802 3.852 1.027 1.349-.775 1.811-2.491 1.032-3.833-.779-1.342-2.503-1.802-3.852-1.027-1.349.775-1.811 2.491-1.032 3.833zm-6.511-3.203c.89 1.534 2.861 2.059 4.403 1.174 1.541-.885 2.07-2.846 1.18-4.38-.89-1.534-2.861-2.059-4.403-1.174-1.541.885-2.07 2.846-1.18 4.38zm-26.666 3.748c.779 1.342 2.503 1.802 3.852 1.027 1.349-.775 1.811-2.491 1.032-3.833-.779-1.342-2.503-1.802-3.852-1.027-1.349.775-1.811 2.491-1.032 3.833zm5.992 21.549c.779 1.342 2.503 1.802 3.852 1.027 1.349-.775 1.811-2.491 1.032-3.833-.779-1.342-2.503-1.802-3.852-1.027-1.349.775-1.811 2.491-1.032 3.833zm-30.897-3.542c.779 1.342 2.503 1.802 3.852 1.027 1.349-.775 1.811-2.491 1.032-3.833-.779-1.342-2.503-1.802-3.852-1.027-1.349.775-1.811 2.491-1.032 3.833zm2.317 26.438c.779 1.342 2.503 1.802 3.852 1.027 1.349-.775 1.811-2.491 1.032-3.833-.779-1.342-2.503-1.802-3.852-1.027-1.349.775-1.811 2.491-1.032 3.833zm-26.494-6.23c.779 1.342 2.503 1.802 3.852 1.027 1.349-.775 1.811-2.491 1.032-3.833-.779-1.342-2.503-1.802-3.852-1.027-1.349.775-1.811 2.491-1.032 3.833zm60.614 15.326c.779 1.342 2.503 1.802 3.852 1.027 1.349-.775 1.811-2.491 1.032-3.833-.779-1.342-2.503-1.802-3.852-1.027-1.349.775-1.811 2.491-1.032 3.833zm-71.844-42.038c.779 1.342 2.503 1.802 3.852 1.027 1.349-.775 1.811-2.491 1.032-3.833-.779-1.342-2.503-1.802-3.852-1.027-1.349.775-1.811 2.491-1.032 3.833zm10.509-41.211c.779 1.342 2.503 1.802 3.852 1.027 1.349-.775 1.811-2.491 1.032-3.833-.779-1.342-2.503-1.802-3.852-1.027-1.349.775-1.811 2.491-1.032 3.833zm-44.026-11.736c.779 1.342 2.503 1.802 3.852 1.027 1.349-.775 1.811-2.491 1.032-3.833-.779-1.342-2.503-1.802-3.852-1.027-1.349.775-1.811 2.491-1.032 3.833zm-20.143-34.712c.779 1.342 2.503 1.802 3.852 1.027 1.349-.775 1.811-2.491 1.032-3.833-.779-1.342-2.503-1.802-3.852-1.027-1.349.775-1.811 2.491-1.032 3.833zm-15.733-9.475c.779 1.342 2.503 1.802 3.852 1.027 1.349-.775 1.811-2.491 1.032-3.833-.779-1.342-2.503-1.802-3.852-1.027-1.349.775-1.811 2.491-1.032 3.833zm20.905-18.487c.779 1.342 2.503 1.802 3.852 1.027 1.349-.775 1.811-2.491 1.032-3.833-.779-1.342-2.503-1.802-3.852-1.027-1.349.775-1.811 2.491-1.032 3.833zm37.968-1.908c1.112 1.917 3.576 2.574 5.503 1.467 1.927-1.107 2.587-3.558 1.475-5.475-1.112-1.917-3.576-2.574-5.503-1.467-1.927 1.107-2.587 3.558-1.475 5.475zm9.833-13.517c.779 1.342 2.503 1.802 3.852 1.027 1.349-.775 1.811-2.491 1.032-3.833-.779-1.342-2.503-1.802-3.852-1.027-1.349.775-1.811 2.491-1.032 3.833zm4.432 7.637c.779 1.342 2.503 1.802 3.852 1.027 1.349-.775 1.811-2.491 1.032-3.833-.779-1.342-2.503-1.802-3.852-1.027-1.349.775-1.811 2.491-1.032 3.833zm47.183-19.697c1.001 1.725 3.219 2.316 4.953 1.32 1.734-.996 2.328-3.202 1.327-4.928-1.001-1.725-3.219-2.316-4.953-1.32-1.734.996-2.328 3.202-1.327 4.928zm56.804 96.703c.779 1.347 2.503 1.809 3.852 1.031 1.349-.778 1.811-2.501 1.032-3.848-.779-1.347-2.503-1.809-3.852-1.031-1.349.778-1.811 2.501-1.032 3.848zm-210.729 97.086c.779 1.347 2.503 1.809 3.852 1.031 1.349-.778 1.811-2.501 1.032-3.848-.779-1.347-2.503-1.809-3.852-1.031-1.349.778-1.811 2.501-1.032 3.848zm10.173 40.138c.667 1.155 2.146 1.551 3.302.884 1.156-.667 1.552-2.144.885-3.298-.667-1.155-2.146-1.551-3.302-.884-1.156.667-1.552 2.144-.885 3.298zm-59.34 27.718c.667 1.155 2.146 1.551 3.302.884 1.156-.667 1.552-2.144.885-3.298-.667-1.155-2.146-1.551-3.302-.884-1.156.667-1.552 2.144-.885 3.298zm-19.884-21.525c.779 1.347 2.503 1.809 3.852 1.031 1.349-.778 1.811-2.501 1.032-3.848-.779-1.347-2.503-1.809-3.852-1.031-1.349.778-1.811 2.501-1.032 3.848zm4.223 28.234c.779 1.347 2.503 1.809 3.852 1.031 1.349-.778 1.811-2.501 1.032-3.848-.779-1.347-2.503-1.809-3.852-1.031-1.349.778-1.811 2.501-1.032 3.848zm-44.392 18.167c.556.962 1.788 1.292 2.752.737.963-.556 1.294-1.786.737-2.749-.556-.962-1.788-1.292-2.752-.737-.963.556-1.294 1.786-.737 2.749zm33.078 21.817c.334.577 1.073.775 1.651.442.578-.333.776-1.072.442-1.649s-1.073-.775-1.651-.442c-.578.333-.776 1.072-.442 1.649zm45.413-13.181c.779 1.347 2.503 1.809 3.852 1.031 1.349-.778 1.811-2.501 1.032-3.848-.779-1.347-2.503-1.809-3.852-1.031-1.349.778-1.811 2.501-1.032 3.848zm61.333-6.562c.779 1.347 2.503 1.809 3.852 1.031 1.349-.778 1.811-2.501 1.032-3.848-.779-1.347-2.503-1.809-3.852-1.031-1.349.778-1.811 2.501-1.032 3.848zm-22.66-16.671c.556.962 1.788 1.292 2.752.737.963-.556 1.294-1.786.737-2.749-.556-.962-1.788-1.292-2.752-.737-.963.556-1.294 1.786-.737 2.749zm36.687-20.23c.779 1.347 2.503 1.809 3.852 1.031 1.349-.778 1.811-2.501 1.032-3.848-.779-1.347-2.503-1.809-3.852-1.031-1.349.778-1.811 2.501-1.032 3.848zm12.518 28.097c.779 1.347 2.503 1.809 3.852 1.031 1.349-.778 1.811-2.501 1.032-3.848-.779-1.347-2.503-1.809-3.852-1.031-1.349.778-1.811 2.501-1.032 3.848zm-15.688 45.295c1.001 1.732 3.219 2.326 4.953 1.326 1.734-1 2.328-3.215 1.327-4.948-1.001-1.732-3.219-2.326-4.953-1.326-1.734 1-2.328 3.215-1.327 4.948zm-30.292 29.586c.779 1.347 2.503 1.809 3.852 1.031 1.349-.778 1.811-2.501 1.032-3.848-.779-1.347-2.503-1.809-3.852-1.031-1.349.778-1.811 2.501-1.032 3.848zm-17.791-9.755c.89 1.54 2.861 2.067 4.403 1.178 1.541-.889 2.07-2.858 1.18-4.398-.89-1.54-2.861-2.067-4.403-1.178-1.541.889-2.07 2.858-1.18 4.398zm-26.667 3.763c.779 1.347 2.503 1.809 3.852 1.031 1.349-.778 1.811-2.501 1.032-3.848-.779-1.347-2.503-1.809-3.852-1.031-1.349.778-1.811 2.501-1.032 3.848zm5.993 21.637c.779 1.347 2.503 1.809 3.852 1.031 1.349-.778 1.811-2.501 1.032-3.848-.779-1.347-2.503-1.809-3.852-1.031-1.349.778-1.811 2.501-1.032 3.848zm-30.897-3.556c.779 1.347 2.503 1.809 3.852 1.031 1.349-.778 1.811-2.501 1.032-3.848-.779-1.347-2.503-1.809-3.852-1.031-1.349.778-1.811 2.501-1.032 3.848zm-35.407-6.532c.779 1.347 2.503 1.809 3.852 1.031 1.349-.778 1.811-2.501 1.032-3.848-.779-1.347-2.503-1.809-3.852-1.031-1.349.778-1.811 2.501-1.032 3.848zm10.509-41.378c.779 1.347 2.503 1.809 3.852 1.031 1.349-.778 1.811-2.501 1.032-3.848-.779-1.347-2.503-1.809-3.852-1.031-1.349.778-1.811 2.501-1.032 3.848zm-44.026-11.784c.779 1.347 2.503 1.809 3.852 1.031 1.349-.778 1.811-2.501 1.032-3.848-.779-1.347-2.503-1.809-3.852-1.031-1.349.778-1.811 2.501-1.032 3.848zm13.401-64.694c1.112 1.925 3.576 2.584 5.503 1.473s2.587-3.573 1.475-5.497c-1.112-1.925-3.576-2.584-5.503-1.473s-2.587 3.573-1.475 5.497zm19.429-13.722c.779 1.347 2.503 1.809 3.852 1.031 1.349-.778 1.811-2.501 1.032-3.848-.779-1.347-2.503-1.809-3.852-1.031-1.349.778-1.811 2.501-1.032 3.848zm11.196 19.558c.779 1.347 2.503 1.809 3.852 1.031 1.349-.778 1.811-2.501 1.032-3.848-.779-1.347-2.503-1.809-3.852-1.031-1.349.778-1.811 2.501-1.032 3.848zm18.003-38.257c.779 1.347 2.503 1.809 3.852 1.031 1.349-.778 1.811-2.501 1.032-3.848-.779-1.347-2.503-1.809-3.852-1.031-1.349.778-1.811 2.501-1.032 3.848zm22.416 6.589c1.001 1.732 3.219 2.326 4.953 1.326 1.734-1 2.328-3.215 1.327-4.948-1.001-1.732-3.219-2.326-4.953-1.326-1.734 1-2.328 3.215-1.327 4.948zm31.766-48.061c.779 1.347 2.503 1.809 3.852 1.031 1.349-.778 1.811-2.501 1.032-3.848-.779-1.347-2.503-1.809-3.852-1.031-1.349.778-1.811 2.501-1.032 3.848zm14.524 7.423c.556.962 1.788 1.292 2.752.737.963-.556 1.294-1.786.737-2.749-.556-.962-1.788-1.292-2.752-.737-.963.556-1.294 1.786-.737 2.749zm10.513 138.922c.779 1.347 2.503 1.809 3.852 1.031 1.349-.778 1.811-2.501 1.032-3.848-.779-1.347-2.503-1.809-3.852-1.031-1.349.778-1.811 2.501-1.032 3.848zm67.672 2.794c.779 1.347 2.503 1.809 3.852 1.031 1.349-.778 1.811-2.501 1.032-3.848-.779-1.347-2.503-1.809-3.852-1.031-1.349.778-1.811 2.501-1.032 3.848zm-18.891 22.047c.779 1.347 2.503 1.809 3.852 1.031 1.349-.778 1.811-2.501 1.032-3.848-.779-1.347-2.503-1.809-3.852-1.031-1.349.778-1.811 2.501-1.032 3.848z" sketch:type="MSShapeGroup"/></g></svg>